<svg width="17" height="17" viewBox="0 0 17 17" fill="none" xmlns="http://www.w3.org/2000/svg">
<g clip-path="url(#clip0_6467_39385)">
<path d="M6.35003 10.8618C5.20125 10.3169 4.2721 9.39726 3.71538 8.25415C3.15866 7.11105 3.00751 5.81252 3.28679 4.57211C3.56607 3.3317 4.25914 2.22324 5.25205 1.42904C6.24495 0.634829 7.47857 0.202148 8.75003 0.202148C10.0215 0.202148 11.2551 0.634829 12.248 1.42904C13.2409 2.22324 13.934 3.3317 14.2133 4.57211C14.4925 5.81252 14.3414 7.11105 13.7847 8.25415C13.228 9.39726 12.2988 10.3169 11.15 10.8618V12.9978H6.35003V10.8618ZM6.35003 13.7978H11.15V14.9978C11.15 15.6618 10.614 16.1978 9.95003 16.1978H7.55003C7.23177 16.1978 6.92655 16.0714 6.7015 15.8463C6.47646 15.6213 6.35003 15.3161 6.35003 14.9978V13.7978ZM7.95003 9.71779V11.3978H9.55003V9.71779C10.5213 9.51954 11.3843 8.96772 11.9718 8.16932C12.5593 7.37092 12.8294 6.38282 12.7298 5.39657C12.6301 4.41033 12.1679 3.49621 11.4326 2.83144C10.6972 2.16667 9.74129 1.79861 8.75003 1.79861C7.75877 1.79861 6.80282 2.16667 6.06751 2.83144C5.3322 3.49621 4.86992 4.41033 4.77029 5.39657C4.67066 6.38282 4.94077 7.37092 5.52827 8.16932C6.11577 8.96772 6.9788 9.51954 7.95003 9.71779Z" fill="#4E5155"/>
</g>
<defs>
<clipPath id="clip0_6467_39385">
<rect width="16" height="16" fill="white" transform="translate(0.75 0.197266)"/>
</clipPath>
</defs>
</svg>
