<svg width="33" height="32" viewBox="0 0 33 32" fill="none" xmlns="http://www.w3.org/2000/svg">
<g clip-path="url(#clip0_4719_5056)">
<path d="M5 15.5C5 17.0102 5.29746 18.5056 5.87539 19.9009C6.45331 21.2961 7.3004 22.5639 8.36827 23.6317C9.43615 24.6996 10.7039 25.5467 12.0991 26.1246C13.4944 26.7025 14.9898 27 16.5 27C18.0102 27 19.5056 26.7025 20.9009 26.1246C22.2961 25.5467 23.5639 24.6996 24.6317 23.6317C25.6996 22.5639 26.5467 21.2961 27.1246 19.9009C27.7025 18.5056 28 17.0102 28 15.5C28 13.9898 27.7025 12.4944 27.1246 11.0991C26.5467 9.7039 25.6996 8.43615 24.6317 7.36827C23.5639 6.3004 22.2961 5.45331 20.9009 4.87539C19.5056 4.29746 18.0102 4 16.5 4C14.9898 4 13.4944 4.29746 12.0991 4.87539C10.7039 5.45331 9.43615 6.3004 8.36827 7.36827C7.3004 8.43615 6.45331 9.7039 5.87539 11.0991C5.29746 12.4944 5 13.9898 5 15.5Z" stroke="#040415" stroke-width="2" stroke-linecap="round" stroke-linejoin="round"/>
<path d="M12.5 13.3335H12.5133" stroke="#040415" stroke-width="2.66667" stroke-linecap="round" stroke-linejoin="round"/>
<path d="M20.5 13.3335H20.5133" stroke="#040415" stroke-width="2.66667" stroke-linecap="round" stroke-linejoin="round"/>
<path d="M13.1665 20.3333C13.601 19.8898 14.1196 19.5375 14.692 19.297C15.2644 19.0565 15.879 18.9326 16.4998 18.9326C17.1207 18.9326 17.7353 19.0565 18.3077 19.297C18.88 19.5375 19.3987 19.8898 19.8332 20.3333" stroke="#040415" stroke-width="2" stroke-linecap="round" stroke-linejoin="round"/>
</g>
<defs>
<clipPath id="clip0_4719_5056">
<rect width="32" height="32" fill="white" transform="translate(0.5)"/>
</clipPath>
</defs>
</svg>
