<svg width="16" height="16" viewBox="0 0 16 16" fill="none" xmlns="http://www.w3.org/2000/svg">
<circle cx="8" cy="8" r="8" fill="#96A0E4"/>
<g clip-path="url(#clip0_4719_5045)">
<path d="M6.977 3.10554C7.6438 2.96596 8.34035 2.96156 9.02245 3.10417C9.11095 3.68394 9.4524 4.2197 9.99985 4.53576C10.5472 4.85181 11.182 4.87966 11.7283 4.66639C12.1929 5.18583 12.5373 5.79126 12.7498 6.4385C12.2926 6.80503 11.9998 7.36824 11.9998 7.99984C11.9998 8.63184 12.2929 9.19534 12.7506 9.56184C12.645 9.88204 12.5052 10.1963 12.3299 10.4998C12.1547 10.8034 11.9524 11.0816 11.7279 11.3332C11.1817 11.12 10.5471 11.148 9.99985 11.4639C9.45285 11.7797 9.1115 12.3149 9.02265 12.8942C8.3559 13.0337 7.65935 13.0381 6.97721 12.8955C6.88874 12.3158 6.54725 11.78 5.99983 11.4639C5.45242 11.1479 4.81769 11.12 4.27136 11.3333C3.80678 10.8139 3.46233 10.2084 3.24982 9.56119C3.70706 9.19469 3.99984 8.63144 3.99984 7.99984C3.99984 7.36789 3.70672 6.80438 3.24902 6.43786C3.35466 6.11765 3.49447 5.80339 3.66971 5.49986C3.84495 5.19633 4.04721 4.91812 4.2717 4.66653C4.81796 4.87965 5.45253 4.85174 5.99983 4.53576C6.54682 4.21995 6.8882 3.68479 6.977 3.10554ZM7.99985 9.49984C8.82825 9.49984 9.49985 8.82829 9.49985 7.99984C9.49985 7.17144 8.82825 6.49986 7.99985 6.49986C7.1714 6.49986 6.49983 7.17144 6.49983 7.99984C6.49983 8.82829 7.1714 9.49984 7.99985 9.49984Z" fill="white"/>
</g>
<defs>
<clipPath id="clip0_4719_5045">
<rect width="10" height="10" fill="white" transform="translate(3 3)"/>
</clipPath>
</defs>
</svg>
